PathFileType	4	(X/Y/Z)	69_2_68_p1_0-402_filt_butterworth.trc
DataRate	CameraRate	NumFrames	NumMarkers	Units	OrigDataRate	OrigDataStartFrame	OrigNumFrames
59.0	59.0	5	27	m	59.0	100	402
Frame#	Time	RHip			RKnee			RAnkle			RBigToe			RSmallToe			RHeel			LHip			LKnee			LAnkle			LBigToe			LSmallToe			LHeel			Neck			Head			Nose			RShoulder			RElbow			RWrist			RThumb			RIndex			RPinky			LShoulder			LElbow			LWrist			LThumb			LIndex			LPinky			
		X1	Y1	Z1	X2	Y2	Z2	X3	Y3	Z3	X4	Y4	Z4	X5	Y5	Z5	X6	Y6	Z6	X7	Y7	Z7	X8	Y8	Z8	X9	Y9	Z9	X10	Y10	Z10	X11	Y11	Z11	X12	Y12	Z12	X13	Y13	Z13	X14	Y14	Z14	X15	Y15	Z15	X16	Y16	Z16	X17	Y17	Z17	X18	Y18	Z18	X19	Y19	Z19	X20	Y20	Z20	X21	Y21	Z21	X22	Y22	Z22	X23	Y23	Z23	X24	Y24	Z24	X25	Y25	Z25	X26	Y26	Z26	X27	Y27	Z27	
100	1.694915254237288	0.3098002579938559	0.5043304170174452	0.5326602582701451	0.2693126776339117	0.5278713212353632	0.9325081415774867	0.23210003796614778	0.5575911607859294	1.3182749791245894	0.24882925636177283	0.4552631074901929	1.3387770901281435	0.30935922234263996	0.48381319018958335	1.3358510243932085	0.19749547803055612	0.6592754489242485	1.4144468078273587	0.1180263893565159	0.4090151334527702	0.5360435082435778	0.1036977701993987	0.4001968571267918	0.9057205587377188	0.029380835596187885	0.5097379412640253	1.3351815311729376	0.1561774041136157	0.38470627691504694	1.3145674450600686	0.10262926934256783	0.3572311611172477	1.3082165280590858	-0.003339911457373638	0.5516717678272863	1.395015018766076	0.24004906340339988	0.4210690490973278	0.0229641668699195	0.29929956065370755	0.4090619908084547	-0.21938912034219438	0.3559665520760901	0.39697461033072373	-0.08864071079241947	0.3508068625791053	0.5108035745523953	0.08081572643628118	0.4825519952974743	0.6623008937406618	0.16531543104406315	0.6290368050934166	0.8735361727103459	0.268434259785427	0.7202464084240415	0.9681416429153038	0.3196906822171147	0.7356792009168407	0.9672696314382643	0.31611486415634105	0.683523622875856	0.9251860160189822	0.3231555801762802	0.08305522955722001	0.35212893971811166	0.09228575048005364	-0.09696313875725986	0.24833091899858306	0.1759101457743676	-0.2511774421704396	0.11883007860916138	0.2881367309104089	-0.27934391795390107	0.049745045596720855	0.33528775739957356	-0.35247023134821537	0.05978334134466205	0.335859284202046	-0.3657860185950193	0.05450077975672216	0.33019284582338443
101	1.7118644067796611	0.311666753670979	0.5014996243860708	0.5316576515382679	0.27053977729864004	0.5240241649298487	0.9339439652072322	0.23005993247534004	0.5550469555041867	1.3156981261474912	0.24693033062687167	0.4867300540719025	1.3578876450153934	0.30559045223303616	0.5063828332421819	1.349718576782293	0.19676289078399425	0.632663488888294	1.3952433429845008	0.11830669535123456	0.40753968941381213	0.5364153081694375	0.10656086609182966	0.3904252261980736	0.9051386583747036	0.03038822052750518	0.5020175751960911	1.3319970655837472	0.1562565431252889	0.4129244542371847	1.3358172982764827	0.10113977395907828	0.3703952213917317	1.3215101899532664	-0.0013402056779902162	0.5383025807911094	1.3877212423934708	0.24066482498775252	0.42261551071663983	0.02225304696542669	0.30019210365044924	0.4077734969840975	-0.22065782215280774	0.3556066453011737	0.39704448627214145	-0.08888362030051342	0.3510491383652622	0.5154342890977368	0.08009895088344457	0.4827399684602099	0.6628064876399425	0.1646491079956735	0.626615609839499	0.8762674597865413	0.26786915371305037	0.7189769817864549	0.9679668004820186	0.31730798624505535	0.7313383631535451	0.9733548672564857	0.3155422699882749	0.6822276257361863	0.9380234436274908	0.32566407052342944	0.0840476712525592	0.35158949137528206	0.09215871249744301	-0.09454212834135169	0.24561547490796243	0.1742444643928405	-0.24353515433130343	0.11287099829293451	0.2862418898100073	-0.2780451915920106	0.04927485463252093	0.33551028430689817	-0.3409741856911489	0.05044017793459468	0.3335793058632355	-0.3629578693738474	0.053397882070501626	0.3311956582099431
102	1.728813559322034	0.31468845406130846	0.49991730013749924	0.5301764286157279	0.27221533200084275	0.5193736419750222	0.9345431486884992	0.22864350534641242	0.5499998224023515	1.312405889753434	0.24596579555266884	0.5206107788614195	1.3775763959652187	0.3024325333776633	0.5373249809627066	1.3665370611582006	0.19932123476681146	0.597444725976539	1.3695588897225015	0.11898591548745271	0.40400588209896915	0.5335486011092118	0.10508365829423552	0.38687595375855643	0.9068010511084702	0.03136717613397223	0.49537426444887966	1.3288369553471489	0.15516864231714614	0.4458360956638812	1.358982706796844	0.09871918526572646	0.39652692796508604	1.3441054904483316	0.0012876098694078386	0.5175125720463554	1.3763765403696768	0.24095652312739302	0.4224497292720296	0.02049974010343547	0.3025432062321129	0.40469577124601763	-0.22277131143161222	0.3554698668523376	0.3967730599267024	-0.08982490161835185	0.3511054957508026	0.51875621488402	0.0766102356423378	0.48276711683349016	0.6667977390084547	0.16376166946682172	0.6276245460532941	0.8820765902392511	0.2665524694273239	0.7203709650360056	0.9680963547966843	0.30963993613706686	0.7282363771218952	0.9786560640034171	0.31032048509687926	0.6801611773973203	0.9576244268436319	0.32678649073747135	0.08755932674358131	0.347543641839275	0.08997979547167348	-0.09112437654361294	0.23895623230147103	0.16852634638110434	-0.23751703628018583	0.10436396549484366	0.28177070672478355	-0.2778318412726538	0.0487512775884939	0.33404854961553965	-0.33071278192568104	0.03985315846106938	0.3283182027710819	-0.3541527001196208	0.04415520697700997	0.3227505646744922
103	1.7457627118644068	0.31705485370792436	0.503403111319873	0.5295691272676726	0.2735063021784592	0.5168556566792046	0.9352462191910307	0.2283156370354986	0.5438272772185094	1.3095857096004788	0.24561199312318974	0.545348855620311	1.3920735506546609	0.3009119279410707	0.5661657146980767	1.3817452432523742	0.2040340886745411	0.5661347486486843	1.3463694753249622	0.11966209879941711	0.3996613161750717	0.5292221958453671	0.09960079956417431	0.3919252307422604	0.9108590021250645	0.032146750034503666	0.4913951334319149	1.3263795497370416	0.1510013589409268	0.47314161226321505	1.377428322720494	0.09323881627039471	0.4261684352509778	1.3673880880690352	0.003887604537444517	0.4960233313803463	1.3649864253357689	0.2418029974512481	0.422139266752241	0.018122604414069616	0.305890612416633	0.40120412826429785	-0.22468452680024822	0.3563774228949219	0.39530666032259265	-0.09240756457906195	0.3514828315962185	0.5201344083243554	0.07160027987489824	0.4817610690370998	0.6771178856452656	0.16283501456278887	0.6316220968022583	0.89137745499916	0.2626840407061365	0.7249477999674802	0.9671320964724813	0.29723665732501026	0.729278999626097	0.9813873565682971	0.3000225445422542	0.6811512218848964	0.975476458873643	0.3221866801531773	0.09434657304819978	0.34041568212880924	0.08404631586018306	-0.08769031106507337	0.23068182312095042	0.15828612999455127	-0.23370197913770854	0.09494428287973453	0.27307482545525885	-0.2772175994827795	0.0467934167027205	0.32762178680992515	-0.32237287541455056	0.029362943523711597	0.3175166101730247	-0.3400991480643044	0.02786842816408041	0.30467812888646406
104	1.7627118644067796	0.31778565764000105	0.5112207484542954	0.5296654821313608	0.2744102490465001	0.516726987167118	0.936342986647415	0.22873092949025045	0.5393985054136261	1.3082297500826432	0.24662206863737896	0.5515780912367625	1.396580766522451	0.3025825956571121	0.578474142917332	1.3882593166514763	0.20857752274118274	0.5496419379101948	1.3341288093925678	0.12005778951495916	0.396720526616157	0.5253984453396549	0.09232651506203415	0.40417708568615285	0.91689354542105	0.03271898263796497	0.49004991339663917	1.3246634011403575	0.14477967407776185	0.48421920251232026	1.3840898264285602	0.08642797974738556	0.4416148479119178	1.377517097549532	0.005406713733351554	0.4834413209774715	1.358301718893578	0.24406127041731848	0.4225040827451217	0.015285282455080039	0.30906411616573126	0.39940320986372363	-0.2269556489071856	0.3592806869198131	0.39150129836991376	-0.09681643746787699	0.35240057520608764	0.5207024459114199	0.06651028688564135	0.4806448881433657	0.6899440728639734	0.15934548794670145	0.6372971408890447	0.9004790440610064	0.252882575624338	0.7315829570911558	0.9651577233892028	0.2810092807030838	0.7340732393296252	0.981734958262816	0.28564587751109205	0.6892636528947026	0.9822738278752156	0.30848888769824045	0.10251857269412164	0.3329224885051461	0.07402685060149822	-0.08484183941060493	0.2242819011600916	0.1441526494738717	-0.23058708442379588	0.08469919331905161	0.2576307493171299	-0.2752355572118155	0.04282258867866293	0.31383377483944774	-0.31508022372716044	0.016670219196721375	0.29895953850865886	-0.32718382739018276	0.009125544082229094	0.28065668788969395
